<?xml version="1.0" encoding="UTF-8"?>
<svg id="Layer_1" data-name="Layer 1" xmlns="http://www.w3.org/2000/svg" xmlns:xlink="http://www.w3.org/1999/xlink" viewBox="0 0 60 60">
  <defs>
    <style>
      .cls-1 {
        fill: none;
      }

      .cls-2 {
        clip-path: url(#clippath);
      }
    </style>
    <clipPath id="clippath">
      <rect class="cls-1" y="0" width="60" height="60"/>
    </clipPath>
  </defs>
  <g class="cls-2">
    <g>
      <path d="M.12,26.29v31.09l19.99-15.55L.12,26.29Z"/>
      <path d="M52.27,18.2v9.56l5.9-4.59-5.9-4.97Z"/>
      <path d="M31.13.41c-.65-.55-1.61-.55-2.26,0l-4.66,3.92h11.59L31.13.41Z"/>
      <path d="M7.73,18.2l-5.9,4.97,5.9,4.59v-9.56Z"/>
      <path d="M23.57,43.59L2.48,60h55.04l-21.09-16.41h-12.86Z"/>
      <path d="M39.89,41.84l19.99,15.55v-31.09l-19.99,15.55Z"/>
      <path d="M29.56,21.02c-1.43,0-2.9,1.39-2.9,3.71s1.44,3.94,2.78,3.94c1.41,0,2.58-1.66,2.66-3.74v-.44c-.06-2.05-1.09-3.47-2.54-3.47Z"/>
      <path d="M36.43,40.08l12.32-9.58V9.61c0-.97-.79-1.76-1.76-1.76H13.01c-.97,0-1.76.79-1.76,1.76v20.89l12.32,9.58h12.86ZM17.61,28.11c-.84-3.19-.42-6.56,1.19-9.47,1.61-2.92,4.22-5.07,7.37-6.08,3.32-1.06,6.84-.75,9.92.88,3.08,1.62,5.33,4.35,6.33,7.68,0,.02.01.04.02.05.67,2.5.47,4.87-.64,7.66-.75,1.89-2.59,3.91-5.51,3.91-1.06,0-2.07-.43-2.86-1.22-.19-.19-.35-.39-.5-.6-.99.8-2.18,1.26-3.48,1.26-1.7,0-3.35-.82-4.53-2.26-1.14-1.39-1.77-3.23-1.77-5.2s.67-3.8,1.88-5.14c1.19-1.32,2.85-2.08,4.54-2.08.93,0,1.81.22,2.6.64.15-.81.87-1.43,1.73-1.43h0c.97,0,1.75.8,1.75,1.77l-.05,9.77c0,.3.12.6.32.8.07.07.21.19.37.19,1.42,0,2.04-1.18,2.24-1.69.82-2.06.98-3.69.52-5.43-.74-2.41-2.37-4.38-4.6-5.56-2.24-1.18-4.8-1.41-7.22-.64-4.76,1.51-7.49,6.48-6.22,11.31,1.05,4.01,4.68,6.89,8.81,7,.97.03,1.74.84,1.71,1.81-.03.95-.81,1.71-1.76,1.71-.02,0-.03,0-.05,0-2.72-.08-5.41-1.04-7.57-2.72-2.24-1.75-3.81-4.13-4.54-6.89Z"/>
    </g>
  </g>
</svg>