<?xml version="1.0" encoding="UTF-8"?>
<svg id="Layer_1" data-name="Layer 1" xmlns="http://www.w3.org/2000/svg" xmlns:xlink="http://www.w3.org/1999/xlink" viewBox="0 0 60 60">
  <defs>
    <style>
      .cls-1 {
        fill: #2b7ec2;
      }

      .cls-2 {
        fill: none;
      }

      .cls-3 {
        clip-path: url(#clippath);
      }
    </style>
    <clipPath id="clippath">
      <rect class="cls-2" y="0" width="60" height="60"/>
    </clipPath>
  </defs>
  <g class="cls-3">
    <g>
      <path class="cls-1" d="M51.52,56.47l-23.6-12.49c-.61-.33-1.36-.28-1.95.11l-18.05,12.5c-.68.47-.97,1.32-.72,2.1.24.78.97,1.31,1.79,1.31h41.64c.86,0,1.61-.58,1.82-1.42.21-.84-.18-1.7-.94-2.1Z"/>
      <path class="cls-1" d="M59.42,52.91l-5.55-24.99c-.14-.61-.57-1.11-1.15-1.34-.59-.23-1.24-.15-1.75.2l-18.05,12.49c-.54.38-.84,1-.8,1.65.04.66.42,1.24.99,1.55l23.6,12.49c.28.15.58.22.88.22.4,0,.8-.13,1.14-.39.58-.44.85-1.18.7-1.9Z"/>
      <path class="cls-1" d="M46.36,23.82c-.25-.78-.97-1.32-1.79-1.32h-17.12c-3.11,5.64-7.72,11.03-9.61,13.13-1.06,1.19-2.59,1.87-4.18,1.87s-3.12-.68-4.19-1.87c-.73-.81-1.86-2.11-3.16-3.73L1.78,52.33c-.16.75.15,1.53.78,1.96.32.21.68.32,1.05.32s.75-.11,1.07-.33l40.96-28.36c.68-.46.97-1.31.73-2.1Z"/>
      <path class="cls-1" d="M13.66,0C6.42,0,.53,5.89.53,13.12c0,6.74,10.53,18.66,11.73,20,.36.39.86.62,1.39.62s1.04-.23,1.4-.62c1.2-1.34,11.73-13.27,11.73-20C26.78,5.89,20.9,0,13.66,0ZM13.66,18.75c-3.1,0-5.62-2.52-5.62-5.62s2.52-5.62,5.62-5.62,5.63,2.52,5.63,5.62-2.52,5.62-5.63,5.62Z"/>
    </g>
  </g>
</svg>