<?xml version="1.0" encoding="UTF-8"?>
<svg id="Layer_1" data-name="Layer 1" xmlns="http://www.w3.org/2000/svg" viewBox="0 0 100 100">
  <defs>
    <style>
      .cls-1 {
        fill: #2b7ec2;
      }

      .cls-2 {
        fill: #2f3f8d;
      }
    </style>
  </defs>
  <path class="cls-2" d="M48.94,63.65c-6.68,0-12.12-5.44-12.12-12.12s5.44-12.12,12.12-12.12,12.12,5.44,12.12,12.12-5.44,12.12-12.12,12.12ZM48.94,43.39c-4.49,0-8.14,3.65-8.14,8.14s3.65,8.14,8.14,8.14,8.14-3.65,8.14-8.14-3.65-8.14-8.14-8.14Z"/>
  <path class="cls-2" d="M48.94,96.77c-10.73,0-19.13-19.87-19.13-45.24S38.21,6.29,48.94,6.29s19.13,19.87,19.13,45.24c0,11.8-1.83,22.92-5.16,31.32-.4,1.02-1.56,1.52-2.58,1.12-1.02-.4-1.52-1.56-1.12-2.58,3.15-7.94,4.88-18.54,4.88-29.85,0-19.52-6.22-41.26-15.16-41.26s-15.16,21.75-15.16,41.26,6.22,41.26,15.16,41.26c2.82,0,5.18-2.47,6.67-4.54.64-.89,1.88-1.1,2.77-.46.89.64,1.1,1.88.46,2.77-2.91,4.06-6.33,6.2-9.9,6.2Z"/>
  <path class="cls-2" d="M74.84,79.48c-9.4,0-22.26-3.89-35.34-11.31-10.26-5.82-19.03-12.89-24.7-19.93-6.06-7.52-7.91-14.28-5.22-19.02.54-.95,1.75-1.29,2.71-.75.95.54,1.29,1.75.75,2.71-1.8,3.18-.03,8.49,4.86,14.57,5.36,6.66,13.72,13.39,23.56,18.97,16.98,9.62,38.97,14.93,43.37,7.16,1.8-3.18.03-8.49-4.86-14.57-5.36-6.66-13.72-13.39-23.56-18.97-14.52-8.23-29.94-12.38-38.39-10.34-1.07.26-2.14-.4-2.4-1.46-.26-1.07.4-2.14,1.46-2.4,9.5-2.3,25.71,1.92,41.28,10.74,10.26,5.82,19.03,12.89,24.7,19.93,6.06,7.52,7.91,14.28,5.22,19.02-2.15,3.8-6.99,5.64-13.46,5.64Z"/>
  <path class="cls-2" d="M23.04,79.48c-6.47,0-11.3-1.84-13.46-5.64-2.69-4.74-.83-11.5,5.22-19.02,5.66-7.04,14.44-14.12,24.7-19.93,22.07-12.51,43.5-14.99,48.79-5.66,1.67,2.94,1.59,6.74-.21,10.98-.43,1.01-1.6,1.48-2.61,1.05-1.01-.43-1.48-1.6-1.05-2.61.91-2.14,1.72-5.17.41-7.47-4.41-7.77-26.39-2.46-43.37,7.16-9.84,5.58-18.21,12.31-23.56,18.97-4.89,6.08-6.66,11.39-4.86,14.57,4.41,7.77,26.39,2.46,43.37-7.16,10.03-5.69,18.5-12.54,23.84-19.31.68-.86,1.93-1.01,2.79-.33.86.68,1.01,1.93.33,2.79-5.65,7.16-14.53,14.37-25,20.3-13.08,7.41-25.93,11.31-35.34,11.31Z"/>
  <circle class="cls-1" cx="86.57" cy="30.21" r="5.05"/>
  <circle class="cls-1" cx="26.04" cy="56.59" r="5.05" transform="translate(-35.02 68.88) rotate(-76.67)"/>
  <circle class="cls-1" cx="48.94" cy="8.28" r="5.05"/>
</svg>