<?xml version="1.0" encoding="UTF-8"?>
<svg id="Layer_1" data-name="Layer 1" xmlns="http://www.w3.org/2000/svg" xmlns:xlink="http://www.w3.org/1999/xlink" viewBox="0 0 60 60">
  <defs>
    <style>
      .cls-1 {
        fill: #fff;
      }

      .cls-2 {
        fill: none;
      }

      .cls-3 {
        clip-path: url(#clippath);
      }
    </style>
    <clipPath id="clippath">
      <rect class="cls-2" y="0" width="60" height="60"/>
    </clipPath>
  </defs>
  <g class="cls-3">
    <path class="cls-1" d="M60,25v10c0,2.76-2.24,5-5,5h-1.36c-1.91,11.33-11.77,20-23.64,20-1.11,0-2-.89-2-2s.89-2,2-2c11.03,0,20-8.97,20-20v-12c0-11.03-8.97-20-20-20S10,12.97,10,24v14c0,1.11-.89,2-2,2h-3c-2.76,0-5-2.24-5-5v-10c0-2.76,2.24-5,5-5h1.36C8.27,8.67,18.13,0,30,0s21.73,8.67,23.64,20h1.36c2.76,0,5,2.24,5,5ZM30,8c-8.82,0-16,7.18-16,16v10c0,8.82,7.18,16,16,16s16-7.18,16-16v-10c0-8.82-7.18-16-16-16Z"/>
  </g>
</svg>